<svg width="184" height="56" viewBox="0 0 184 56" fill="none" xmlns="http://www.w3.org/2000/svg">
<path d="M13 10.0809C13 8.87548 13.6774 7.77234 14.7524 7.22705L24.3524 2.35748C26.4811 1.2777 29 2.82442 29 5.21133V45.9191C29 47.1245 28.3226 48.2277 27.2476 48.773L17.6476 53.6425C15.5189 54.7223 13 53.1756 13 50.7887V10.0809Z" fill="#126DFF"/>
<path d="M30.6 21.1777C30.6 19.9657 31.2848 18.8576 32.3689 18.3156L41.9689 13.5156C44.0966 12.4517 46.6 13.9989 46.6 16.3777V38.0223C46.6 39.2344 45.9152 40.3424 44.8311 40.8845L35.2311 45.6845C33.1034 46.7483 30.6 45.2011 30.6 42.8223V21.1777Z" fill="#126DFF"/>
<path d="M48.2 21.584C48.2 19.3048 50.515 17.7563 52.6216 18.6264L62.2216 22.5916C63.419 23.0861 64.2 24.2538 64.2 25.5492V42.4161C64.2 44.6953 61.885 46.2438 59.7784 45.3737L50.1784 41.4085C48.981 40.914 48.2 39.7463 48.2 38.4509V21.584Z" fill="#126DFF"/>
<path d="M162.825 20.7344C162.544 18.0625 160.387 16.4688 156.966 16.4688C153.403 16.4688 151.434 18.1094 151.387 20.3594C151.341 22.7969 153.919 23.9219 156.825 24.5781L159.872 25.3281C165.684 26.6406 170.044 29.5938 170.044 35.2656C170.044 41.5 165.169 45.4375 156.919 45.4375C148.716 45.4375 143.466 41.6406 143.278 34.375H150.122C150.356 37.7969 153.075 39.5312 156.825 39.5312C160.528 39.5312 162.919 37.7969 162.919 35.2656C162.919 32.9688 160.809 31.8906 157.106 30.9531L153.403 30.0625C147.684 28.6562 144.169 25.7969 144.169 20.8281C144.169 14.6406 149.606 10.5625 157.012 10.5625C164.512 10.5625 169.481 14.7344 169.575 20.7344H162.825Z" fill="#222222"/>
<path d="M122.7 44.9688H110.747V11.0312H122.841C133.059 11.0312 139.294 17.4062 139.294 27.9531C139.294 38.5938 133.059 44.9688 122.7 44.9688ZM117.778 38.9219H122.419C128.887 38.9219 132.262 35.5469 132.262 27.9531C132.262 20.4062 128.887 17.0781 122.466 17.0781H117.778V38.9219Z" fill="#222222"/>
<path d="M76.2 44.9688V11.0312H83.2312V25.0938H97.95V11.0312H105.028V44.9688H97.95V30.9062H83.2312V44.9688H76.2Z" fill="#222222"/>
</svg>
